<svg xmlns="http://www.w3.org/2000/svg" width="93" height="68.763" viewBox="0 0 93 68.763">
  <g id="Group_623" data-name="Group 623" transform="translate(-718.5 -3116.5)">
    <path id="Path_692" data-name="Path 692" d="M30.975,219.483,35.1,194.75l-8.244-1.534L16.9,218.235a7.014,7.014,0,0,0-.5,2.591V251.97a7.009,7.009,0,0,0,7.009,7.009H48.891A7.01,7.01,0,0,0,55.9,251.97V226.492a7.01,7.01,0,0,0-7.009-7.009Z" transform="translate(703.596 2924.784)" fill="none" stroke="#ed7063" stroke-linecap="round" stroke-linejoin="round" stroke-width="3"/>
    <path id="Path_693" data-name="Path 693" d="M30.975,219.483,35.1,194.75l-8.244-1.534L16.9,218.235a7.014,7.014,0,0,0-.5,2.591V251.97a7.009,7.009,0,0,0,7.009,7.009H48.891A7.01,7.01,0,0,0,55.9,251.97V226.492a7.01,7.01,0,0,0-7.009-7.009Z" transform="translate(754.1 2924.784)" fill="none" stroke="#ed7063" stroke-linecap="round" stroke-linejoin="round" stroke-width="3"/>
  </g>
</svg>
