<svg xmlns="http://www.w3.org/2000/svg" width="105.482" height="131.084" viewBox="0 0 105.482 131.084">
  <g id="Group_709" data-name="Group 709" transform="translate(-1282.14 274.432)">
    <ellipse id="Ellipse_36" data-name="Ellipse 36" cx="51.098" cy="14.366" rx="51.098" ry="14.366" transform="translate(1283.925 -272.932)" fill="none" stroke="#ff665c" stroke-linecap="round" stroke-linejoin="round" stroke-width="3"/>
    <path id="Path_836" data-name="Path 836" d="M1283.717-263.768v14.184c0,7.934,22.877,14.366,51.1,14.366s51.1-6.432,51.1-14.366v-14.184" transform="translate(0.208 24.747)" fill="none" stroke="#ff665c" stroke-linecap="round" stroke-linejoin="round" stroke-width="3"/>
    <g id="Group_672" data-name="Group 672" transform="translate(1311.409 -231.174)">
      <circle id="Ellipse_37" data-name="Ellipse 37" cx="3.214" cy="3.214" r="3.214" fill="none" stroke="#ff665c" stroke-linecap="round" stroke-linejoin="round" stroke-width="3"/>
      <circle id="Ellipse_38" data-name="Ellipse 38" cx="3.214" cy="3.214" r="3.214" transform="translate(20.117 1.773)" fill="none" stroke="#ff665c" stroke-linecap="round" stroke-linejoin="round" stroke-width="3"/>
      <circle id="Ellipse_39" data-name="Ellipse 39" cx="3.214" cy="3.214" r="3.214" transform="translate(40.233)" fill="none" stroke="#ff665c" stroke-linecap="round" stroke-linejoin="round" stroke-width="3"/>
    </g>
    <path id="Path_837" data-name="Path 837" d="M1283.64-254.9v14.181c0,7.934,22.877,14.366,51.1,14.366s51.1-6.432,51.1-14.366V-254.9" transform="translate(0 48.693)" fill="none" stroke="#ff665c" stroke-linecap="round" stroke-linejoin="round" stroke-width="3"/>
    <g id="Group_673" data-name="Group 673" transform="translate(1311.124 -198.362)">
      <circle id="Ellipse_40" data-name="Ellipse 40" cx="3.214" cy="3.214" r="3.214" fill="none" stroke="#ff665c" stroke-linecap="round" stroke-linejoin="round" stroke-width="3"/>
      <circle id="Ellipse_41" data-name="Ellipse 41" cx="3.214" cy="3.214" r="3.214" transform="translate(20.117 1.773)" fill="none" stroke="#ff665c" stroke-linecap="round" stroke-linejoin="round" stroke-width="3"/>
      <circle id="Ellipse_42" data-name="Ellipse 42" cx="3.214" cy="3.214" r="3.214" transform="translate(40.233)" fill="none" stroke="#ff665c" stroke-linecap="round" stroke-linejoin="round" stroke-width="3"/>
    </g>
    <path id="Path_838" data-name="Path 838" d="M1283.717-246.035v14.184c0,7.934,22.877,14.366,51.1,14.366s51.1-6.432,51.1-14.366v-14.184" transform="translate(0.208 72.637)" fill="none" stroke="#ff665c" stroke-linecap="round" stroke-linejoin="round" stroke-width="3"/>
    <g id="Group_674" data-name="Group 674" transform="translate(1311.409 -165.549)">
      <circle id="Ellipse_43" data-name="Ellipse 43" cx="3.214" cy="3.214" r="3.214" fill="none" stroke="#ff665c" stroke-linecap="round" stroke-linejoin="round" stroke-width="3"/>
      <circle id="Ellipse_44" data-name="Ellipse 44" cx="3.214" cy="3.214" r="3.214" transform="translate(20.117 1.773)" fill="none" stroke="#ff665c" stroke-linecap="round" stroke-linejoin="round" stroke-width="3"/>
      <circle id="Ellipse_45" data-name="Ellipse 45" cx="3.214" cy="3.214" r="3.214" transform="translate(40.233)" fill="none" stroke="#ff665c" stroke-linecap="round" stroke-linejoin="round" stroke-width="3"/>
    </g>
  </g>
</svg>
