<svg xmlns="http://www.w3.org/2000/svg" xmlns:xlink="http://www.w3.org/1999/xlink" width="162" height="38.847" viewBox="0 0 162 38.847">
  <defs>
    <clipPath id="clip-path">
      <rect id="Rectangle_5" data-name="Rectangle 5" width="162" height="38.847" fill="none"/>
    </clipPath>
  </defs>
  <g id="Group_590" data-name="Group 590" transform="translate(0 0)">
    <g id="Group_6" data-name="Group 6" transform="translate(0 0)" clip-path="url(#clip-path)">
      <path id="Path_1" data-name="Path 1" d="M31.116,8.909c-5.909,0-10.078,3.849-10.078,9.575s4.123,9.529,10.262,9.529c5.084,0,8.474-2.7,9.391-6.689H35.056c-.5,1.466-1.831,2.335-3.847,2.335-2.657,0-4.031-1.6-4.261-4.214H40.965V18.438c0-5.726-3.94-9.529-9.85-9.529m-3.8,7.009a3.792,3.792,0,0,1,3.894-2.52,3.585,3.585,0,0,1,3.711,2.52Z" transform="translate(0.38 0.161)" fill="#fff"/>
      <path id="Path_2" data-name="Path 2" d="M74.859,8.954c-6.139,0-10.216,4.031-10.216,9.529s4.077,9.529,10.216,9.529,10.169-4.031,10.169-9.529S81,8.954,74.859,8.954m0,13.881a4.352,4.352,0,1,1,4.351-4.352,4.265,4.265,0,0,1-4.351,4.352" transform="translate(1.167 0.161)" fill="#fff"/>
      <path id="Path_3" data-name="Path 3" d="M94.591,2.385H88.772V9.44H85.7v4.534h3.068v7.238a7.061,7.061,0,0,0,7.193,6.918,6.254,6.254,0,0,0,2.931-.6V23H96.7a2.183,2.183,0,0,1-2.106-2.474V13.974h4.351V9.44H94.591Z" transform="translate(1.547 0.043)" fill="#fff"/>
      <path id="Path_4" data-name="Path 4" d="M104.39,0a3.216,3.216,0,0,0-3.207,3.206,3.206,3.206,0,1,0,6.413,0A3.216,3.216,0,0,0,104.39,0" transform="translate(1.826 0)" fill="#fff"/>
      <rect id="Rectangle_4" data-name="Rectangle 4" width="5.817" height="18.324" transform="translate(103.284 9.483)" fill="#fff"/>
      <path id="Path_5" data-name="Path 5" d="M52.847,8.954c-6.139,0-10.216,4.031-10.216,9.529s4.077,9.529,10.216,9.529a11.782,11.782,0,0,0,4.352-.791v.928c0,3.39-1.878,5.451-4.856,5.451a4.5,4.5,0,0,1-4.4-2.978l-5.36,2.154c1.511,3.756,4.947,5.909,9.757,5.909,6.689,0,10.673-4.077,10.673-10.857V18.483c0-5.5-4.031-9.529-10.169-9.529m0,13.881A4.352,4.352,0,1,1,57.2,18.483a4.265,4.265,0,0,1-4.351,4.352" transform="translate(0.769 0.161)" fill="#fff"/>
      <path id="Path_6" data-name="Path 6" d="M18.925,27.64H13.108V17.9a2.643,2.643,0,0,0-2.37-2.843H5.816V27.64H0V9.238H10.738a8.442,8.442,0,0,1,8.186,8.66Z" transform="translate(0 0.167)" fill="#fff"/>
      <path id="Path_7" data-name="Path 7" d="M111.308,20.63V9.315h5.863V19.851a2.778,2.778,0,1,0,5.541,0V9.315h5.819V20.63c0,4.489-3.069,7.376-8.611,7.376s-8.613-2.887-8.613-7.376" transform="translate(2.009 0.168)" fill="#fff"/>
      <path id="Path_8" data-name="Path 8" d="M148.358,27.64h-5.816V17.782a2.733,2.733,0,0,0-2.729-2.728h-2.728V27.64h-5.816V9.238h8.544a8.554,8.554,0,0,1,8.546,8.544Z" transform="translate(2.369 0.167)" fill="#fff"/>
      <path id="Path_9" data-name="Path 9" d="M159.431,27.64h-5.816V17.782a2.728,2.728,0,1,0-5.457,0V27.64h-5.816V17.782a8.544,8.544,0,0,1,17.089,0Z" transform="translate(2.569 0.167)" fill="#fff"/>
    </g>
  </g>
</svg>
